<mxfile host="Electron" modified="2023-04-06T16:22:38.203Z" agent="Mozilla/5.0 (X11; Linux x86_64) AppleWebKit/537.36 (KHTML, like Gecko) draw.io/21.1.2 Chrome/106.0.5249.199 Electron/21.4.3 Safari/537.36" etag="fD7PL6V23-5OmaNTvSFo" version="21.1.2" type="device">
  <diagram name="Page-1" id="BMpmiIWSTliSVoSeCEZz">
    <mxGraphModel dx="1373" dy="1027" grid="1" gridSize="10" guides="1" tooltips="1" connect="1" arrows="1" fold="1" page="1" pageScale="1" pageWidth="850" pageHeight="1100" math="0" shadow="0">
      <root>
        <mxCell id="0" />
        <mxCell id="1" parent="0" />
        <mxCell id="YIjLL7iZaQ_MNGLk-JPd-44" value="" style="rounded=1;whiteSpace=wrap;html=1;fillColor=#00FF00;dashed=1;strokeWidth=2;opacity=10;" vertex="1" parent="1">
          <mxGeometry x="102.5" y="210" width="308.5" height="210" as="geometry" />
        </mxCell>
        <mxCell id="YIjLL7iZaQ_MNGLk-JPd-14" value="" style="points=[];aspect=fixed;html=1;align=center;shadow=0;dashed=0;image;image=img/lib/allied_telesis/computer_and_terminals/Personal_Computer_with_Server.svg;" vertex="1" parent="1">
          <mxGeometry x="80" y="120.00000000000003" width="82.4" height="82.4" as="geometry" />
        </mxCell>
        <mxCell id="YIjLL7iZaQ_MNGLk-JPd-15" value="" style="points=[];aspect=fixed;html=1;align=center;shadow=0;dashed=0;image;image=img/lib/allied_telesis/computer_and_terminals/Server_Desktop.svg;" vertex="1" parent="1">
          <mxGeometry x="357.5" y="120.00000000000003" width="65" height="82.4" as="geometry" />
        </mxCell>
        <mxCell id="YIjLL7iZaQ_MNGLk-JPd-16" value="Serwer DNS" style="text;html=1;strokeColor=none;fillColor=none;align=center;verticalAlign=middle;whiteSpace=wrap;rounded=0;dashed=1;opacity=30;fontFamily=Courier New;" vertex="1" parent="1">
          <mxGeometry x="355" y="90" width="70" height="30" as="geometry" />
        </mxCell>
        <mxCell id="YIjLL7iZaQ_MNGLk-JPd-17" value="Klient" style="text;html=1;strokeColor=none;fillColor=none;align=center;verticalAlign=middle;whiteSpace=wrap;rounded=0;dashed=1;opacity=30;fontFamily=Courier New;" vertex="1" parent="1">
          <mxGeometry x="86.19999999999999" y="90" width="70" height="30" as="geometry" />
        </mxCell>
        <mxCell id="YIjLL7iZaQ_MNGLk-JPd-19" value="" style="endArrow=none;html=1;rounded=0;strokeWidth=3;" edge="1" parent="1">
          <mxGeometry width="50" height="50" relative="1" as="geometry">
            <mxPoint x="119" y="680" as="sourcePoint" />
            <mxPoint x="120.69999999999999" y="202.4" as="targetPoint" />
          </mxGeometry>
        </mxCell>
        <mxCell id="YIjLL7iZaQ_MNGLk-JPd-20" value="" style="endArrow=none;html=1;rounded=0;strokeWidth=3;" edge="1" parent="1">
          <mxGeometry width="50" height="50" relative="1" as="geometry">
            <mxPoint x="399" y="680" as="sourcePoint" />
            <mxPoint x="400" y="202.4" as="targetPoint" />
          </mxGeometry>
        </mxCell>
        <mxCell id="YIjLL7iZaQ_MNGLk-JPd-22" value="" style="endArrow=classic;html=1;rounded=0;strokeWidth=2;" edge="1" parent="1">
          <mxGeometry width="50" height="50" relative="1" as="geometry">
            <mxPoint x="120" y="240" as="sourcePoint" />
            <mxPoint x="400" y="240" as="targetPoint" />
          </mxGeometry>
        </mxCell>
        <mxCell id="YIjLL7iZaQ_MNGLk-JPd-23" value="" style="endArrow=classic;html=1;rounded=0;strokeWidth=2;" edge="1" parent="1">
          <mxGeometry width="50" height="50" relative="1" as="geometry">
            <mxPoint x="400" y="280" as="sourcePoint" />
            <mxPoint x="120" y="280" as="targetPoint" />
          </mxGeometry>
        </mxCell>
        <mxCell id="YIjLL7iZaQ_MNGLk-JPd-24" value="&lt;font face=&quot;Courier New&quot;&gt;&lt;b&gt;a.pl&lt;/b&gt; MX ?&lt;/font&gt;" style="text;html=1;strokeColor=none;fillColor=none;align=center;verticalAlign=middle;whiteSpace=wrap;rounded=0;" vertex="1" parent="1">
          <mxGeometry x="190" y="210" width="140" height="30" as="geometry" />
        </mxCell>
        <mxCell id="YIjLL7iZaQ_MNGLk-JPd-25" value="&lt;font face=&quot;Courier New&quot;&gt;&lt;b&gt;a.p&lt;/b&gt;l MX&lt;/font&gt;" style="text;html=1;strokeColor=none;fillColor=none;align=center;verticalAlign=middle;whiteSpace=wrap;rounded=0;" vertex="1" parent="1">
          <mxGeometry x="190" y="250" width="140" height="30" as="geometry" />
        </mxCell>
        <mxCell id="YIjLL7iZaQ_MNGLk-JPd-26" value="" style="endArrow=classic;html=1;rounded=0;strokeWidth=2;" edge="1" parent="1">
          <mxGeometry width="50" height="50" relative="1" as="geometry">
            <mxPoint x="120" y="360" as="sourcePoint" />
            <mxPoint x="400" y="360" as="targetPoint" />
          </mxGeometry>
        </mxCell>
        <mxCell id="YIjLL7iZaQ_MNGLk-JPd-27" value="" style="endArrow=classic;html=1;rounded=0;strokeWidth=2;" edge="1" parent="1">
          <mxGeometry width="50" height="50" relative="1" as="geometry">
            <mxPoint x="400" y="400" as="sourcePoint" />
            <mxPoint x="120" y="400" as="targetPoint" />
          </mxGeometry>
        </mxCell>
        <mxCell id="YIjLL7iZaQ_MNGLk-JPd-28" value="&lt;font face=&quot;Courier New&quot;&gt;poczta.&lt;b&gt;a.pl&lt;/b&gt; A ?&lt;/font&gt;" style="text;html=1;strokeColor=none;fillColor=none;align=center;verticalAlign=middle;whiteSpace=wrap;rounded=0;" vertex="1" parent="1">
          <mxGeometry x="190" y="330" width="140" height="30" as="geometry" />
        </mxCell>
        <mxCell id="YIjLL7iZaQ_MNGLk-JPd-29" value="&lt;font face=&quot;Courier New&quot;&gt;poczta.&lt;b&gt;a.pl&lt;/b&gt; A&lt;/font&gt;" style="text;html=1;strokeColor=none;fillColor=none;align=center;verticalAlign=middle;whiteSpace=wrap;rounded=0;" vertex="1" parent="1">
          <mxGeometry x="150" y="370" width="220" height="30" as="geometry" />
        </mxCell>
        <mxCell id="YIjLL7iZaQ_MNGLk-JPd-30" value="" style="endArrow=classic;html=1;rounded=0;strokeWidth=2;" edge="1" parent="1">
          <mxGeometry width="50" height="50" relative="1" as="geometry">
            <mxPoint x="120" y="480" as="sourcePoint" />
            <mxPoint x="400" y="480" as="targetPoint" />
          </mxGeometry>
        </mxCell>
        <mxCell id="YIjLL7iZaQ_MNGLk-JPd-31" value="" style="endArrow=classic;html=1;rounded=0;strokeWidth=2;" edge="1" parent="1">
          <mxGeometry width="50" height="50" relative="1" as="geometry">
            <mxPoint x="400" y="520" as="sourcePoint" />
            <mxPoint x="120" y="520" as="targetPoint" />
          </mxGeometry>
        </mxCell>
        <mxCell id="YIjLL7iZaQ_MNGLk-JPd-32" value="&lt;font face=&quot;Courier New&quot;&gt;blog.&lt;b&gt;b.pl&lt;/b&gt; A ?&lt;/font&gt;" style="text;html=1;strokeColor=none;fillColor=none;align=center;verticalAlign=middle;whiteSpace=wrap;rounded=0;" vertex="1" parent="1">
          <mxGeometry x="190" y="450" width="140" height="30" as="geometry" />
        </mxCell>
        <mxCell id="YIjLL7iZaQ_MNGLk-JPd-33" value="&lt;font face=&quot;Courier New&quot;&gt;blog.&lt;b&gt;b.pl&lt;/b&gt; A&lt;/font&gt;" style="text;html=1;strokeColor=none;fillColor=none;align=center;verticalAlign=middle;whiteSpace=wrap;rounded=0;" vertex="1" parent="1">
          <mxGeometry x="150" y="490" width="220" height="30" as="geometry" />
        </mxCell>
        <mxCell id="YIjLL7iZaQ_MNGLk-JPd-34" value="" style="endArrow=classic;html=1;rounded=0;strokeWidth=2;" edge="1" parent="1">
          <mxGeometry width="50" height="50" relative="1" as="geometry">
            <mxPoint x="120" y="600" as="sourcePoint" />
            <mxPoint x="400" y="600" as="targetPoint" />
          </mxGeometry>
        </mxCell>
        <mxCell id="YIjLL7iZaQ_MNGLk-JPd-35" value="" style="endArrow=classic;html=1;rounded=0;strokeWidth=2;" edge="1" parent="1">
          <mxGeometry width="50" height="50" relative="1" as="geometry">
            <mxPoint x="400" y="640" as="sourcePoint" />
            <mxPoint x="120" y="640" as="targetPoint" />
          </mxGeometry>
        </mxCell>
        <mxCell id="YIjLL7iZaQ_MNGLk-JPd-36" value="&lt;font face=&quot;Courier New&quot;&gt;&lt;b&gt;a.pl&lt;/b&gt; A ?&lt;/font&gt;" style="text;html=1;strokeColor=none;fillColor=none;align=center;verticalAlign=middle;whiteSpace=wrap;rounded=0;" vertex="1" parent="1">
          <mxGeometry x="190" y="570" width="140" height="30" as="geometry" />
        </mxCell>
        <mxCell id="YIjLL7iZaQ_MNGLk-JPd-37" value="&lt;font face=&quot;Courier New&quot;&gt;&lt;b&gt;a.pl&lt;/b&gt; A&lt;/font&gt;" style="text;html=1;strokeColor=none;fillColor=none;align=center;verticalAlign=middle;whiteSpace=wrap;rounded=0;" vertex="1" parent="1">
          <mxGeometry x="190" y="610" width="140" height="30" as="geometry" />
        </mxCell>
        <mxCell id="YIjLL7iZaQ_MNGLk-JPd-38" value="" style="endArrow=classic;html=1;rounded=0;strokeWidth=2;" edge="1" parent="1">
          <mxGeometry width="50" height="50" relative="1" as="geometry">
            <mxPoint x="120" y="800" as="sourcePoint" />
            <mxPoint x="400" y="800" as="targetPoint" />
          </mxGeometry>
        </mxCell>
        <mxCell id="YIjLL7iZaQ_MNGLk-JPd-39" value="" style="endArrow=classic;html=1;rounded=0;strokeWidth=2;" edge="1" parent="1">
          <mxGeometry width="50" height="50" relative="1" as="geometry">
            <mxPoint x="400" y="840" as="sourcePoint" />
            <mxPoint x="120" y="840" as="targetPoint" />
          </mxGeometry>
        </mxCell>
        <mxCell id="YIjLL7iZaQ_MNGLk-JPd-40" value="&lt;font face=&quot;Courier New&quot;&gt;&lt;b&gt;a.pl&lt;/b&gt; A ?&lt;/font&gt;" style="text;html=1;strokeColor=none;fillColor=none;align=center;verticalAlign=middle;whiteSpace=wrap;rounded=0;" vertex="1" parent="1">
          <mxGeometry x="190" y="770" width="140" height="30" as="geometry" />
        </mxCell>
        <mxCell id="YIjLL7iZaQ_MNGLk-JPd-41" value="&lt;font face=&quot;Courier New&quot;&gt;&lt;b&gt;a.pl&lt;/b&gt; A&lt;/font&gt;" style="text;html=1;strokeColor=none;fillColor=none;align=center;verticalAlign=middle;whiteSpace=wrap;rounded=0;" vertex="1" parent="1">
          <mxGeometry x="190" y="810" width="140" height="30" as="geometry" />
        </mxCell>
        <mxCell id="YIjLL7iZaQ_MNGLk-JPd-42" value="" style="endArrow=classic;startArrow=classic;html=1;rounded=0;dashed=1;" edge="1" parent="1">
          <mxGeometry width="50" height="50" relative="1" as="geometry">
            <mxPoint x="100" y="800" as="sourcePoint" />
            <mxPoint x="100" y="640" as="targetPoint" />
          </mxGeometry>
        </mxCell>
        <mxCell id="YIjLL7iZaQ_MNGLk-JPd-43" value="&lt;font style=&quot;font-size: 14px;&quot;&gt;Δ &amp;gt; 5s&lt;/font&gt;" style="text;html=1;strokeColor=none;fillColor=none;align=center;verticalAlign=middle;whiteSpace=wrap;rounded=0;" vertex="1" parent="1">
          <mxGeometry x="40" y="700" width="60" height="30" as="geometry" />
        </mxCell>
        <mxCell id="YIjLL7iZaQ_MNGLk-JPd-46" value="" style="rounded=1;whiteSpace=wrap;html=1;fillColor=#00FF00;dashed=1;strokeWidth=2;opacity=10;" vertex="1" parent="1">
          <mxGeometry x="105" y="568" width="308" height="90" as="geometry" />
        </mxCell>
        <mxCell id="YIjLL7iZaQ_MNGLk-JPd-47" value="" style="endArrow=classic;startArrow=classic;html=1;rounded=0;dashed=1;" edge="1" parent="1">
          <mxGeometry width="50" height="50" relative="1" as="geometry">
            <mxPoint x="101" y="600" as="sourcePoint" />
            <mxPoint x="100" y="400" as="targetPoint" />
          </mxGeometry>
        </mxCell>
        <mxCell id="YIjLL7iZaQ_MNGLk-JPd-48" value="&lt;font style=&quot;font-size: 14px;&quot;&gt;Δ ⩽&amp;nbsp;5s&lt;/font&gt;" style="text;html=1;strokeColor=none;fillColor=none;align=center;verticalAlign=middle;whiteSpace=wrap;rounded=0;" vertex="1" parent="1">
          <mxGeometry x="33.8" y="490" width="66.2" height="30" as="geometry" />
        </mxCell>
        <mxCell id="YIjLL7iZaQ_MNGLk-JPd-49" value="" style="endArrow=none;html=1;rounded=0;strokeWidth=3;dashed=1;dashPattern=1 4;" edge="1" parent="1">
          <mxGeometry width="50" height="50" relative="1" as="geometry">
            <mxPoint x="118" y="740" as="sourcePoint" />
            <mxPoint x="119" y="680" as="targetPoint" />
          </mxGeometry>
        </mxCell>
        <mxCell id="YIjLL7iZaQ_MNGLk-JPd-50" value="" style="endArrow=none;html=1;rounded=0;strokeWidth=3;dashed=1;dashPattern=1 4;" edge="1" parent="1">
          <mxGeometry width="50" height="50" relative="1" as="geometry">
            <mxPoint x="398" y="740" as="sourcePoint" />
            <mxPoint x="399" y="680" as="targetPoint" />
          </mxGeometry>
        </mxCell>
        <mxCell id="YIjLL7iZaQ_MNGLk-JPd-51" value="" style="endArrow=none;html=1;rounded=0;strokeWidth=3;" edge="1" parent="1">
          <mxGeometry width="50" height="50" relative="1" as="geometry">
            <mxPoint x="119" y="870" as="sourcePoint" />
            <mxPoint x="118.69999999999999" y="750" as="targetPoint" />
          </mxGeometry>
        </mxCell>
        <mxCell id="YIjLL7iZaQ_MNGLk-JPd-52" value="" style="endArrow=none;html=1;rounded=0;strokeWidth=3;" edge="1" parent="1">
          <mxGeometry width="50" height="50" relative="1" as="geometry">
            <mxPoint x="399.3" y="870" as="sourcePoint" />
            <mxPoint x="399" y="750" as="targetPoint" />
          </mxGeometry>
        </mxCell>
        <mxCell id="YIjLL7iZaQ_MNGLk-JPd-53" value="" style="rounded=1;whiteSpace=wrap;html=1;fillColor=#0000FF;dashed=1;strokeWidth=2;opacity=10;" vertex="1" parent="1">
          <mxGeometry x="105" y="765" width="308" height="90" as="geometry" />
        </mxCell>
        <mxCell id="YIjLL7iZaQ_MNGLk-JPd-54" value="" style="rounded=1;whiteSpace=wrap;html=1;fillColor=#FF0000;dashed=1;strokeWidth=2;opacity=10;" vertex="1" parent="1">
          <mxGeometry x="105" y="446" width="308" height="90" as="geometry" />
        </mxCell>
        <mxCell id="YIjLL7iZaQ_MNGLk-JPd-55" value="&lt;font style=&quot;font-size: 14px;&quot; face=&quot;Courier New&quot;&gt;flows&lt;/font&gt;" style="swimlane;fontStyle=0;childLayout=stackLayout;horizontal=1;startSize=30;horizontalStack=0;resizeParent=1;resizeParentMax=0;resizeLast=0;collapsible=1;marginBottom=0;whiteSpace=wrap;html=1;" vertex="1" parent="1">
          <mxGeometry x="480" y="450" width="360" height="140" as="geometry" />
        </mxCell>
        <mxCell id="YIjLL7iZaQ_MNGLk-JPd-56" value="&lt;font style=&quot;font-size: 15px;&quot; face=&quot;Courier New&quot;&gt;&lt;span style=&quot;background-color: rgb(210, 255, 194);&quot;&gt;1. domain: &lt;b style=&quot;&quot;&gt;a.pl&lt;/b&gt;, samples_count: 6, ...&lt;br&gt;&lt;/span&gt;&lt;b&gt;&amp;nbsp;&amp;nbsp;&lt;br&gt;&lt;/b&gt;&lt;span style=&quot;background-color: rgb(255, 196, 194);&quot;&gt;2. domain: &lt;b style=&quot;&quot;&gt;b&lt;/b&gt;&lt;b style=&quot;border-color: var(--border-color);&quot;&gt;.pl&lt;/b&gt;, samples_count: 2, ...&lt;/span&gt;&lt;br&gt;&lt;br&gt;&lt;span style=&quot;background-color: rgb(219, 230, 255);&quot;&gt;3. domain:&amp;nbsp;&lt;b style=&quot;border-color: var(--border-color);&quot;&gt;a.pl&lt;/b&gt;, samples_count: 2, ...&lt;/span&gt;&lt;/font&gt;&lt;b&gt;&lt;br&gt;&lt;/b&gt;" style="text;strokeColor=none;fillColor=none;align=left;verticalAlign=middle;spacingLeft=4;spacingRight=4;overflow=hidden;points=[[0,0.5],[1,0.5]];portConstraint=eastwest;rotatable=0;whiteSpace=wrap;html=1;" vertex="1" parent="YIjLL7iZaQ_MNGLk-JPd-55">
          <mxGeometry y="30" width="360" height="110" as="geometry" />
        </mxCell>
      </root>
    </mxGraphModel>
  </diagram>
</mxfile>
